/* XPM */
static char *pixmap[] = {
/* width height ncols cpp */
"48 48 10 2",
  /* Colors */
  "00 c #000000",
  "01 c #008000",
  "02 c #808000",
  "03 c #808080",
  "04 c #C0C0C0",
  "05 c #00FF00",
  "06 c #FFFF00",
  "07 c #0000FF",
  "08 c #FFFFFF",
  ".. s None c None",
  "................................................................................................",
  "................................................................................................",
  "................................................................................................",
  "................................................................................................",
  "................................................................................................",
  "................................................................................................",
  "0000............................................................................................",
  "..00............................................................................................",
  "..00............................................................................................",
  "..0001050105010501050105010501050105010501050105010501050105010501050105010501050105010501050105",
  "..0005010501050105010501050105000000000000000000000105010404040404040404050105010501040000000501",
  "..0001050105010501050105010501000000000000000000000501040000000000000000040501050105040000000105",
  "000008080801050105010501040105010501050105010501050105040000000000000000040105040501040000000501",
  "000008040405010501050105010501050000000501050404010404040000000000000000040501050105010501050105",
  "000008040401050104010501050105010000000105010404010404040000000000000000040105010501050405010501",
  "000008080805010501050105010501050000000504040105010501050404040404040404010501050404040401050105",
  "000008040401050105010501050105010501050104040501050105010504050105010501050105040000000004010401",
  "000008040405010401050104010501050105010501050105010501050105010501050105010501040000000004050105",
  "000008080801050105010501050105010501050105010501050105010101010101010101060105040000000004010501",
  "..0001050105010501050105010504050105010404050105010501010000000000000000010504040000000004050105",
  "..0005010501050104010501050105010501050404010501050405010004000000040000010105040000000004010501",
  "..0001050105010501050105010501050105010501040405010501010000040004000400010501040000000004050105",
  "..0005010501050105010501040105010501050105040401050105010000000000000000010105040000000004010501",
  "..0001050105010501050105010501050104010501050105010501010000000000000000010501040000000004050405",
  "..0004040404040405010501050105010501050105040401050105010000000000000003030303010404040405010501",
  "000007070707070707050105010501050105010501040405040501010000000000000308080804000105010501050105",
  "000007070707070407010501050105010401050105010501050105010002020200000303030303000501000005010501",
  "000007070707070707050105040501050105010404040105010501010102060800000308040303000000060800050105",
  "000007070707070407010501050105010501050404040501050105010502080608020308040303000206080600010501",
  "000007070707070707050105010501050105040401050105010401050400020806080308040303000608060200050105",
  "..0004040404040405010501050105010501050105010501050105010500020808000308040303000006080200010501",
  "..00........................................02060606020202020608000803080403030008000608000000..",
  "..00........................................0206060602060806080608000308040303000006080608060800",
  "..00........................................0202020200020202020806080000000000000608060002020200",
  "..00................................................00020202000208060806080608060806020002020200",
  "..00................................................00020200060806000002060802000008060800020200",
  "......................................................0000020206000202020806000202020802000000..",
  "..........................................................02060002020202060800020202020200......",
  "..........................................................02060002000002020200000002020200......",
  "..........................................................02060000....02020200....00020200......",
  "............................................................0000......00020200......0000........",
  "......................................................................00000000..................",
  "................................................................................................",
  "................................................................................................",
  "................................................................................................",
  "................................................................................................",
  "................................................................................................",
  "................................................................................................",
};
