/* XPM */
static char * yes_xpm[] = {
"16 16 2 1",
" 	c None",
".	c #04F418",
"                ",
"                ",
"           ...  ",
"          ...   ",
"         ...    ",
"         ..     ",
"        ..      ",
"       ..       ",
" ..    ..       ",
" ..   ..        ",
"  ..  ..        ",
"   ....         ",
"    ..          ",
"                ",
"                ",
"                "};
